# xmcd CD database file
# Copyright (C) 1995-1998 Ti Kan
#
# Track frame offsets:
#	150
#	10847
#	21967
#	31150
#	43215
#	55550
#	68350
#	78460
#	88082
#	99197
#	108390
#	119282
#	131847
#	142952
#	155272
#	164770
#	174270
#	183035
#	192440
#	213155
#	227435
#	242715
#	253282
#	262940
#	275942
#	289252
#	301227
#	329002
#
# Disc length: 4556 seconds
#
# Revision: 2
# Processed by: cddbd v1.4PL0 Copyright (c) Steve Scherf et al.
# Submitted via: CDex 1.30Release
#
DISCID=8311ca1c
DTITLE=Hank Snow - The Singing Ranger Vol. 2  [CD2 of 4)
DYEAR=1990
DGENRE=Country
TTITLE0=Nothing But Sweet Lies 1990
TTITLE1=Conscience I'm Guilty 1956
TTITLE2=Hula Rock 1956
TTITLE3=Two Won't Care 1956
TTITLE4=The Party Of The Second Part 1990
TTITLE5=These Hands 1955
TTITLE6=Reminiscin (Chet Atkins) 1956
TTITLE7=New Spanish Two Step (Chet Atkins) 1956
TTITLE8=In An 18th Century Drawing Room 1955
TTITLE9=La Cacuracha 1955
TTITLE10=Born To Lose 1990
TTITLE11=I'm Movin' In 1955
TTITLE12=Love's Call From The Mountain 1990
TTITLE13=Sunrise Serenade 1990
TTITLE14=El Rancho Grande 1955
TTITLE15=Grandfather's Clock 1956
TTITLE16=The Lover's Farewell 1956
TTITLE17=Carnival Of Venice 1956
TTITLE18=Old Doc Brown 1955
TTITLE19=That Pioneer Mother Of Mine 1955
TTITLE20=Lazy Bones 1955
TTITLE21=What Do I Know Today 1955
TTITLE22=Trouble, Trouble, Trouble 1955
TTITLE23=The First Nighters 1955
TTITLE24=How To Play The Guitar 1955
TTITLE25=Little Britches 1955
TTITLE26=What Is Father 1955
TTITLE27=Horses Prayer 1955
EXTD=YEAR: 1990 ID3G:   2
EXTT0=
EXTT1=
EXTT2=
EXTT3=
EXTT4=
EXTT5=
EXTT6=
EXTT7=
EXTT8=
EXTT9=
EXTT10=
EXTT11=
EXTT12=
EXTT13=
EXTT14=
EXTT15=
EXTT16=
EXTT17=
EXTT18=
EXTT19=
EXTT20=
EXTT21=
EXTT22=
EXTT23=
EXTT24=
EXTT25=
EXTT26=
EXTT27=
PLAYORDER=
